<?xml version="1.0" standalone="no"?>
<!DOCTYPE svg PUBLIC "-//W3C//DTD SVG 20010904//EN"
 "http://www.w3.org/TR/2001/REC-SVG-20010904/DTD/svg10.dtd">
<svg version="1.0" xmlns="http://www.w3.org/2000/svg"
 width="160.000000pt" height="160.000000pt" viewBox="0 0 160.000000 160.000000"
 preserveAspectRatio="xMidYMid meet">
<metadata>
Created by potrace 1.14, written by Peter Selinger 2001-2017
</metadata>
<g transform="translate(0.000000,160.000000) scale(0.100000,-0.100000)"
fill="#000000" stroke="none">
<path d="M367 1532 c-66 -24 -115 -66 -141 -121 -12 -25 -34 -59 -48 -75 -100
-106 -101 -311 -2 -364 22 -12 27 -8 124 75 l37 33 28 -28 c52 -51 55 -62 59
-198 4 -135 6 -154 31 -225 53 -149 161 -260 310 -319 33 -13 65 -28 71 -32
12 -9 12 -73 1 -85 -4 -3 -31 -6 -61 -5 -40 0 -56 -4 -61 -15 -8 -22 0 -27 48
-29 23 -1 43 -2 45 -3 1 -1 -11 -15 -28 -31 -17 -17 -28 -35 -25 -40 13 -21
42 -8 86 38 43 44 46 51 48 101 0 30 2 55 3 56 2 1 42 0 89 -3 80 -4 85 -6 83
-26 -1 -11 -3 -28 -3 -36 -1 -12 -10 -15 -41 -12 -51 5 -90 -5 -90 -22 0 -18
17 -24 58 -21 39 2 40 -5 7 -41 -13 -14 -22 -30 -19 -35 12 -20 41 -6 84 38
42 45 45 52 46 102 0 58 -1 56 67 86 21 9 53 29 71 45 l32 29 50 -51 c88 -91
177 -139 190 -103 4 9 -10 51 -31 93 -34 68 -167 300 -187 327 -4 6 -44 66
-89 135 -97 149 -253 358 -338 453 -33 37 -78 93 -100 125 -93 137 -183 198
-294 200 -37 1 -81 -5 -110 -16z"/>
</g>
</svg>
